<?xml version="1.0" encoding="UTF-8" standalone="no"?>
<!DOCTYPE svg PUBLIC "-//W3C//DTD SVG 1.1//EN" "http://www.w3.org/Graphics/SVG/1.1/DTD/svg11.dtd">
<svg width="100%" height="100%" viewBox="0 0 1200 1200" version="1.1" xmlns="http://www.w3.org/2000/svg" xmlns:xlink="http://www.w3.org/1999/xlink" xml:space="preserve" xmlns:serif="http://www.serif.com/" style="fill-rule:evenodd;clip-rule:evenodd;stroke-linejoin:round;stroke-miterlimit:2;">
    <g transform="matrix(1.00186,0,0,1.00309,-0.515732,-0.520025)">
        <rect x="0" y="0" width="1200" height="1200" style="fill:rgb(17,17,17);fill-rule:nonzero;stroke:rgb(17,17,17);stroke-width:1px;"/>
    </g>
    <g transform="matrix(0.999082,0,0,0.999393,0.381008,0.485294)">
        <path d="M408.354,799.183L415.125,814.335L401.582,814.335L408.354,799.183Z" style="fill:rgb(85,60,113);"/>
    </g>
    <g transform="matrix(1,0,0,1,0.610224,0.0364595)">
        <ellipse cx="821.338" cy="334.738" rx="0.471" ry="0.513" style="fill:rgb(85,60,113);"/>
    </g>
    <g transform="matrix(1.25967,0,2.25618,4.01493,-967.833,-1007.06)">
        <path d="M823.008,332.995L824.011,335.016L822.004,335.016L823.008,332.995Z" style="fill:rgb(85,60,113);"/>
    </g>
    <ellipse cx="773.471" cy="280.45" rx="0.182" ry="0.203" style="fill:rgb(85,60,113);"/>
    <g transform="matrix(1.09772,0.401715,-0.522963,1.07601,72.0706,-331.668)">
        <path d="M772.599,280.282L773.3,281.628L771.897,281.628L772.599,280.282Z" style="fill:rgb(85,60,113);"/>
    </g>
    <g transform="matrix(1.56564,-0.603218,0.945844,2.4183,-706.33,69.7755)">
        <path d="M775.757,280.551L776.974,282.439L774.54,282.439L775.757,280.551Z" style="fill:rgb(85,60,113);"/>
    </g>
    <g transform="matrix(3.15714,-2.5591,1.20952,2.57924,-1976.64,1521.78)">
        <path d="M762.807,272.295L764.805,277.489L760.81,277.489L762.807,272.295Z" style="fill:rgb(85,60,113);"/>
    </g>
    <g transform="matrix(0.996152,-0.00408298,0.0374811,0.991474,-7.58614,4.1703)">
        <path d="M494.081,250.987L499.243,253.793L488.919,253.793L494.081,250.987Z" style="fill:rgb(85,60,113);"/>
    </g>
    <g transform="matrix(0.946201,0.00926171,-0.0108049,0.948934,25.3172,11.5313)">
        <path d="M414.184,297.842L418.28,301.997L410.087,301.997L414.184,297.842Z" style="fill:rgb(85,60,113);"/>
    </g>
    <g transform="matrix(0.971651,0.236419,-0.404996,1.66448,371.579,-743.181)">
        <rect x="697.979" y="867.981" width="2.042" height="2.042" style="fill:rgb(85,60,113);"/>
    </g>
    <g transform="matrix(1,0,0,1,246,88)">
        <path d="M0,0L708,0L708,432L706,432C704.208,429.933 702.532,427.86 700.875,425.688C700.383,425.052 699.891,424.416 699.384,423.761C695.776,419.077 692.281,414.315 688.828,409.516C685.37,404.757 681.734,400.14 678.031,395.57C663.961,378.199 663.961,378.199 663.57,368.809C663.499,367.303 663.427,365.798 663.354,364.292C663.317,363.5 663.28,362.708 663.242,361.891C661.799,325.634 661.799,325.634 652,291L652,57L57,57L57,839C61.536,835.031 66.021,831.087 70.438,827C74.454,823.328 78.555,819.903 82.93,816.668C85.483,814.611 87.708,812.345 90,810C92.33,807.642 94.665,805.29 97,802.938C97.603,802.326 98.207,801.714 98.828,801.084C101.366,798.532 103.85,796.119 106.676,793.883C109.26,791.789 111.135,789.552 113.188,786.938C116.313,783.03 119.528,779.287 122.938,775.625C135.635,761.734 150.638,743.321 156,725L158,725C158.099,724.346 158.199,723.693 158.301,723.02C159.031,719.865 160.091,717.032 161.272,714.025C165.653,702.834 168.75,691.461 171.382,679.744C171.757,678.079 172.143,676.417 172.548,674.76C177.913,652.676 177.62,624.755 171,603C170.753,602.172 170.507,601.343 170.252,600.49C164.654,582.169 156.078,567.613 144.707,552.321C141.315,547.709 138.056,543.001 134.782,538.305C134.314,537.637 133.846,536.969 133.363,536.281C132.749,535.4 132.749,535.4 132.122,534.502C130.939,532.843 130.939,532.843 129,531L129,528L127,528C125.32,525.761 123.771,523.531 122.25,521.188C121.571,520.153 121.571,520.153 120.879,519.097C117.275,513.544 114.06,507.869 111,502C110.222,500.587 109.442,499.176 108.66,497.766C80.795,447.006 76.251,381.211 91.59,325.738C98.861,300.774 110.134,278.186 124.438,256.5C124.826,255.908 125.214,255.315 125.615,254.705C128.084,251.052 130.854,248.074 134,245C135.815,242.933 137.56,240.809 139.313,238.688C145.449,231.358 151.98,224.766 159.242,218.543C160.68,217.281 162.04,215.932 163.375,214.563C165,213 165,213 167,213C167.33,212.01 167.66,211.02 168,210C169.448,208.672 169.448,208.672 171.332,207.32C172.037,206.81 172.743,206.301 173.469,205.775C174.629,204.958 174.629,204.958 175.813,204.125C177.022,203.267 177.022,203.267 178.255,202.391C180.827,200.579 183.41,198.786 186,197C187.208,196.166 187.208,196.166 188.44,195.315C204.185,184.542 220.81,175.481 238.25,167.75C238.899,167.462 239.549,167.174 240.218,166.877C243,165.689 244.938,165 248,165L248,163C274.059,153.694 300.377,146.669 328,144C328.875,143.906 329.749,143.813 330.65,143.717C340.028,142.802 349.399,142.8 358.813,142.813C360.109,142.813 360.109,142.813 361.432,142.814C397.36,142.882 431.878,148.66 466,160L466,162C468.64,162.33 471.28,162.66 474,163L474,165C475.176,165.106 475.176,165.106 476.375,165.215C481.298,166.281 485.489,168.362 490,170.563C490.923,171.007 491.846,171.452 492.798,171.91C500.4,175.613 507.755,179.641 515,184L515,186C515.897,186.186 515.897,186.186 516.813,186.375C519,187 519,187 522,189L522,191L525,191L525,193C525.683,193.213 526.366,193.425 527.07,193.645C530.918,195.425 533.719,197.89 536.875,200.688C537.526,201.26 538.176,201.832 538.846,202.422C552.887,214.916 566.692,228.465 576,245L576,247L578,247L578,250L580,250C588.237,264.731 594.822,279.48 600.137,295.502C600.728,297.214 601.379,298.905 602.078,300.576C603.119,303.313 603.417,305.93 603.656,308.84C603.947,311.12 603.947,311.12 604.975,313.633C606.134,317.441 606.494,321.093 606.746,325.039C606.863,326.605 606.979,328.172 607.096,329.738C607.268,332.173 607.436,334.608 607.602,337.043C609.223,360.491 616.898,373.606 631.318,391.861C633.615,394.782 635.87,397.733 638.125,400.688C642.17,405.958 646.3,411.154 650.46,416.333C653.917,420.639 657.344,424.967 660.75,429.313C663.991,433.445 667.234,437.575 670.5,441.688C671.108,442.454 671.717,443.221 672.344,444.012C673.94,445.991 673.94,445.991 675.633,447.625C677,449 677,449 678.375,451.313C679.953,454.127 679.953,454.127 682.438,456.625C687.605,462.732 689.745,470.833 689.297,478.727C688.452,485.198 686.458,487.98 681.438,492C674.528,496.741 666.897,499.448 659.05,502.257C656.361,503.232 653.711,504.295 651.063,505.375C648.715,506.327 646.406,507.198 644,508C642.693,522.022 647.489,529.527 655.773,540.27C658.385,543.954 659.019,546.979 658.938,551.438C656.757,559.723 651.275,563.668 644.313,567.938C643.541,568.431 642.769,568.924 641.975,569.432C636.308,573 636.308,573 634,573L634,575C634.66,575.186 635.32,575.371 636,575.563C641.457,578.177 646.702,582.268 649,588C650.278,597.129 644.564,604.616 639.332,611.602C638.892,612.063 638.453,612.525 638,613L636,613C633.611,617.335 633.19,621.145 634,626C635.359,629.646 636.922,633.175 638.531,636.715C643.821,648.546 642.874,660.829 639,673C633.152,687.494 620.386,697.003 606.445,702.957C596.882,705.852 587.337,706.269 577.411,706.15C575.201,706.124 572.991,706.112 570.78,706.102C565.292,706.076 559.804,706.027 554.316,705.979C549.663,705.939 545.01,705.908 540.356,705.888C538.208,705.875 536.06,705.85 533.912,705.825C516.086,705.69 498.453,707.566 484,719C482.626,720.633 481.286,722.297 480,724C479.361,724.619 478.721,725.237 478.063,725.875C473.027,731.063 469.687,737.082 466.625,743.563C466.242,744.37 465.859,745.177 465.465,746.008C460.485,756.86 456.824,768.402 454,780L452,780L452,782L708,782L708,1024L0,1024L0,0Z" style="fill:rgb(85,60,113);fill-rule:nonzero;"/>
    </g>
    <g transform="matrix(2.5431,0.924825,-1.34234,1.36305,472.142,-667.087)">
        <path d="M401.701,813.019L401.927,813.966L401.475,813.966L401.701,813.019Z" style="fill:rgb(17,17,17);"/>
    </g>
    <g transform="matrix(0.740465,-0.256174,0.529138,0.926618,41.7924,204.585)">
        <path d="M727.841,248.072L743.748,261.23L711.934,261.23L727.841,248.072Z" style="fill:rgb(85,60,113);"/>
    </g>
    <g transform="matrix(1.68442,2.33976,-2.00378,-0.132422,107.079,-1548.33)">
        <path d="M823.884,334.761L823.973,334.861L823.795,334.861L823.884,334.761Z" style="fill:rgb(17,17,17);"/>
    </g>
    <g transform="matrix(0.94,-0.548167,-1.28964,-1.73122,366.938,1079.46)">
        <path d="M719.316,250.505L720.09,251.136L718.542,251.136L719.316,250.505Z" style="fill:rgb(17,17,17);"/>
    </g>
    <g transform="matrix(1,0,0,1,0.357195,-3.95606)">
        <path d="M895.643,992.13L895.643,1067.96L644.492,1067.96L895.643,992.13Z" style="fill:rgb(17,17,17);"/>
    </g>
    <g transform="matrix(0.16086,-1.65574,0.988969,0.212561,-297.251,1104.95)">
        <path d="M374.997,615.966L374.997,619.065L373,619.065L374.997,615.966Z" style="fill:rgb(85,60,113);"/>
    </g>
</svg>
